<svg width="75" height="75" viewBox="0 0 75 75" fill="none" xmlns="http://www.w3.org/2000/svg">
<path d="M22.7975 40.9219C25.379 43.6762 27.0459 47.2764 27.491 51.059C27.6617 52.51 28.663 53.6786 29.9799 54.1033V55.8394C29.3937 55.8627 28.9257 56.3452 28.9257 56.937C28.9257 57.5288 29.3937 58.0113 29.9799 58.0346V59.5994C29.3937 59.6227 28.9257 60.1052 28.9257 60.697C28.9257 61.2888 29.3937 61.7713 29.9799 61.7946V63.1267C29.9799 64.4599 30.8234 65.5997 32.0048 66.0406C32.1116 68.9793 34.5356 71.3372 37.5 71.3372C40.4644 71.3372 42.8883 68.9793 42.9952 66.0406C44.1766 65.5997 45.0201 64.4599 45.0201 63.1267V61.7946C45.6063 61.7713 46.0743 61.2888 46.0743 60.697C46.0743 60.1052 45.6063 59.6227 45.0201 59.5994V58.0346C45.6063 58.0113 46.0743 57.5288 46.0743 56.937C46.0743 56.3452 45.6063 55.8627 45.0201 55.8394V54.1033C46.337 53.6786 47.3383 52.51 47.509 51.059C47.9542 47.2764 49.621 43.6764 52.2025 40.9219C56.6495 36.1768 58.9043 30.8424 58.9043 25.0668C58.9043 23.6861 58.7719 22.3043 58.5106 20.96C58.3948 20.3646 57.8194 19.9758 57.2224 20.0912C56.6269 20.2071 56.2378 20.7838 56.3536 21.3792C56.5882 22.5857 56.707 23.8264 56.707 25.0668C56.707 30.266 54.6522 35.0949 50.5992 39.4192C47.699 42.5139 45.8265 46.5564 45.327 50.8022C45.2413 51.5297 44.6372 52.0783 43.9214 52.0783H31.0786C30.3628 52.0783 29.7587 51.5297 29.673 50.8022C29.1735 46.5565 27.301 42.5139 24.4008 39.4194C20.3479 35.0949 18.293 30.266 18.293 25.0668C18.293 14.476 26.9092 5.85982 37.5 5.85982C44.8431 5.85982 51.6432 10.1392 54.8241 16.7622C55.0869 17.3092 55.7432 17.5396 56.2901 17.277C56.837 17.0143 57.0675 16.3579 56.8049 15.8109C53.3079 8.53008 45.9047 3.66255 37.5 3.66255C25.6976 3.66255 16.0957 13.2645 16.0957 25.0668C16.0957 30.8424 18.3504 36.1768 22.7975 40.9219ZM38.9619 58.0356H42.8227V59.5985H32.1771V58.0356H33.8348C34.4417 58.0356 34.9334 57.5438 34.9334 56.937C34.9334 56.3303 34.4417 55.8384 33.8348 55.8384H32.1771V54.2755H42.8227V55.8384H38.9619C38.355 55.8384 37.8633 56.3303 37.8633 56.937C37.8633 57.5438 38.3552 58.0356 38.9619 58.0356ZM41.9111 64.0386H33.0888C32.586 64.0386 32.1771 63.6296 32.1771 63.127V61.7958H42.8227V63.127C42.8228 63.6296 42.4138 64.0386 41.9111 64.0386ZM37.5 69.1402C35.814 69.1402 34.4191 67.8697 34.2223 66.2358H40.7777C40.5809 67.8697 39.186 69.1402 37.5 69.1402Z" fill="#D0D0D0"/>
<path d="M33.3813 42.8663H35.4315C36.0294 42.8663 36.5782 42.5651 36.8995 42.0606L45.608 28.3816C46.4695 27.0283 45.4951 25.2527 43.8907 25.2527H40.8294L43.4937 17.7921C43.9665 16.4679 42.9825 15.0719 41.5764 15.0719H35.9446C35.0865 15.0719 34.3161 15.6149 34.0274 16.4229L32.5579 20.5378C32.3538 21.1093 32.6518 21.7378 33.2231 21.9419C33.7942 22.1461 34.4231 21.8483 34.6273 21.2767L36.0586 17.269H41.3473L38.683 24.7295C38.2098 26.0539 39.1936 27.45 40.6 27.45H43.5964L35.1806 40.6692H34.0296L37.0279 32.2737C37.3384 31.4049 36.6929 30.4884 35.77 30.4884H31.3375L32.8413 26.2778C33.0454 25.7064 32.7474 25.0778 32.1762 24.8738C31.6052 24.6699 30.9762 24.9675 30.772 25.539L29.1914 29.9651C28.7182 31.2895 29.702 32.6856 31.1084 32.6856H34.5476L31.7426 40.5407C31.3378 41.6725 32.1789 42.8663 33.3813 42.8663Z" fill="#D0D0D0"/>
<path d="M71.7041 21.6848H64.343C62.5257 21.6848 61.0471 23.1633 61.0471 24.9807C61.0471 26.7981 62.5257 28.2766 64.343 28.2766H71.7041C73.5214 28.2766 75 26.7981 75 24.9807C75 23.1633 73.5214 21.6848 71.7041 21.6848ZM71.7041 26.0793H64.343C63.7372 26.0793 63.2444 25.5866 63.2444 24.9807C63.2444 24.3749 63.7372 23.8821 64.343 23.8821H71.7041C72.31 23.8821 72.8028 24.3749 72.8028 24.9807C72.8028 25.5866 72.31 26.0793 71.7041 26.0793Z" fill="#D0D0D0"/>
<path d="M63.3308 14.0796L69.7058 10.3991C71.2794 9.49044 71.8207 7.47086 70.9121 5.89689C70.0015 4.31969 67.9876 3.77916 66.4099 4.69059L60.0349 8.37115C59.0181 8.95812 58.3865 10.0526 58.3865 11.2275C58.3865 13.7729 61.1473 15.3406 63.3308 14.0796ZM61.1335 10.274L67.5086 6.59342C68.0352 6.28917 68.706 6.47037 69.0091 6.99537C69.312 7.52008 69.1317 8.19347 68.6071 8.49625L62.2321 12.1768C61.7061 12.4802 61.0351 12.3007 60.7314 11.7746C60.4241 11.243 60.6152 10.5731 61.1335 10.274Z" fill="#D0D0D0"/>
<path d="M58.8284 37.0881C57.917 38.667 58.4641 40.6838 60.0347 41.5904L66.4096 45.271C67.9909 46.1839 70.0027 45.6395 70.9119 44.0647C71.8206 42.4907 71.2794 40.4711 69.7056 39.5625L63.3306 35.8819C61.7533 34.971 59.7391 35.5105 58.8284 37.0881ZM60.7312 38.1867C61.0333 37.6638 61.703 37.4793 62.232 37.7846L68.607 41.4652C69.1315 41.7681 69.312 42.4414 69.0091 42.9659C68.7054 43.4916 68.0344 43.6718 67.5083 43.368L61.1333 39.6875C60.6182 39.3902 60.4223 38.7218 60.7312 38.1867Z" fill="#D0D0D0"/>
<path d="M3.2959 28.2766H10.657C12.4743 28.2766 13.9529 26.7981 13.9529 24.9807C13.9529 23.1633 12.4743 21.6848 10.657 21.6848H3.2959C1.47861 21.6848 0 23.1633 0 24.9807C0 26.7981 1.47861 28.2766 3.2959 28.2766ZM3.2959 23.8821H10.657C11.2629 23.8821 11.7557 24.3749 11.7557 24.9807C11.7557 25.5866 11.2629 26.0793 10.657 26.0793H3.2959C2.69004 26.0793 2.19727 25.5866 2.19727 24.9807C2.19727 24.3749 2.69004 23.8821 3.2959 23.8821Z" fill="#D0D0D0"/>
<path d="M5.29477 10.3991L11.6696 14.0796C13.2508 14.9925 15.2627 14.4483 16.1721 12.8731C17.0832 11.2941 16.5357 9.27745 14.9657 8.371L8.59067 4.69044C7.01362 3.77945 4.99902 4.31895 4.08847 5.89674C3.17968 7.47071 3.72079 9.49044 5.29477 10.3991ZM5.99116 6.99537C6.29321 6.47242 6.96293 6.28799 7.49189 6.59327L13.8669 10.2738C14.3824 10.5715 14.5775 11.2402 14.269 11.7746C13.9659 12.2994 13.2953 12.4809 12.7683 12.1767L6.39326 8.4961C5.8687 8.19332 5.68837 7.52007 5.99116 6.99537Z" fill="#D0D0D0"/>
<path d="M11.6694 35.8818L5.29443 39.5624C3.7206 40.471 3.17949 42.4907 4.08813 44.0646C4.99853 45.6415 7.01225 46.1823 8.59033 45.2709L14.9653 41.5903C15.9821 41.0033 16.6137 39.9088 16.6137 38.734C16.6137 36.189 13.8532 34.6206 11.6694 35.8818ZM13.8667 39.6876L7.49169 43.3682C6.96494 43.6726 6.29418 43.4909 5.99111 42.9661C5.68832 42.4414 5.86865 41.7683 6.39321 41.4653L12.7682 37.7848C13.2951 37.4807 13.9657 37.6614 14.2689 38.187C14.5761 38.7185 14.385 39.3883 13.8667 39.6876Z" fill="#D0D0D0"/>
<path d="M34.1777 8.71905C34.0178 8.13369 33.4132 7.78887 32.8283 7.94883C27.0709 9.52163 22.5164 13.8476 20.6452 19.5208C20.4103 20.2329 20.943 20.9638 21.6886 20.9638C22.1499 20.9638 22.5794 20.671 22.7317 20.209C24.3716 15.2375 28.3625 11.4464 33.4074 10.0683C33.9927 9.9085 34.3376 9.3044 34.1777 8.71905Z" fill="#D0D0D0"/>
</svg>
